<svg xmlns="http://www.w3.org/2000/svg" width="21.39" height="25.147" viewBox="0 0 21.39 25.147">
  <g id="avatar" transform="translate(0)">
    <g id="Groupe_1" data-name="Groupe 1">
      <path id="Tracé_4" data-name="Tracé 4" d="M142.426,13.55h.167a4.805,4.805,0,0,0,3.671-1.588c2-2.26,1.672-6.135,1.635-6.5A5.313,5.313,0,0,0,145.373.734a5.79,5.79,0,0,0-2.8-.734h-.089a5.8,5.8,0,0,0-2.8.713,5.316,5.316,0,0,0-2.557,4.744c-.036.37-.37,4.244,1.635,6.5A4.786,4.786,0,0,0,142.426,13.55Zm-3.911-7.962c0-.016.005-.031.005-.042.172-3.734,2.822-4.135,3.958-4.135h.062c1.406.031,3.8.6,3.958,4.135a.1.1,0,0,0,.005.042c.005.036.37,3.578-1.286,5.442a3.413,3.413,0,0,1-2.682,1.114h-.052a3.4,3.4,0,0,1-2.677-1.114C138.155,9.176,138.509,5.619,138.515,5.588Z" transform="translate(-131.822)"/>
      <path id="Tracé_5" data-name="Tracé 5" d="M57.462,265.72V265.7c0-.042-.005-.083-.005-.13-.031-1.031-.1-3.442-2.359-4.213l-.052-.016a15.026,15.026,0,0,1-4.322-1.968.7.7,0,1,0-.807,1.151A16.219,16.219,0,0,0,54.67,262.7c1.213.432,1.349,1.729,1.385,2.916a1.047,1.047,0,0,0,.005.13,9.452,9.452,0,0,1-.109,1.609,19.165,19.165,0,0,1-9.181,2.135,19.275,19.275,0,0,1-9.186-2.14,8.948,8.948,0,0,1-.109-1.609c0-.042.005-.083.005-.13.036-1.187.172-2.484,1.385-2.916a16.372,16.372,0,0,0,4.755-2.172.7.7,0,1,0-.807-1.151,14.861,14.861,0,0,1-4.322,1.968c-.021.005-.036.01-.052.016-2.26.776-2.328,3.187-2.359,4.213a1.046,1.046,0,0,1-.005.13v.016a7.986,7.986,0,0,0,.266,2.359.668.668,0,0,0,.271.328,19.7,19.7,0,0,0,10.165,2.489A19.758,19.758,0,0,0,56.941,268.4a.7.7,0,0,0,.271-.328A8.379,8.379,0,0,0,57.462,265.72Z" transform="translate(-36.073 -245.744)"/>
    </g>
  </g>
</svg>
