<svg id="heart" xmlns="http://www.w3.org/2000/svg" width="25" height="25" viewBox="0 0 25 25">
  <path id="Tracé_2" data-name="Tracé 2" d="M22.981,30.822a6.348,6.348,0,0,0-9.789.006l-.684.778-.694-.79a6.505,6.505,0,0,0-4.9-2.315,6.481,6.481,0,0,0-4.887,2.3,8.649,8.649,0,0,0,.011,11.135L11.989,53.26a.68.68,0,0,0,.5.241.673.673,0,0,0,.5-.235l9.975-11.3a8.675,8.675,0,0,0,.011-11.141Zm-1.018,9.989L12.493,51.542,3.043,40.793a6.866,6.866,0,0,1-.005-8.832,5.139,5.139,0,0,1,3.874-1.827,5.157,5.157,0,0,1,3.89,1.833L12,33.33a.654.654,0,0,0,1.012,0l1.187-1.35a5.034,5.034,0,0,1,7.764-.006,6.883,6.883,0,0,1,0,8.838Z" transform="translate(0 -28.501)"/>
</svg>
