<svg xmlns="http://www.w3.org/2000/svg" width="14.84" height="20.08" viewBox="0 0 14.84 20.08">
  <g id="bedside-table" transform="translate(-4.306)">
    <path id="Tracé_49" data-name="Tracé 49" d="M18.841,18.635H4.61a.3.3,0,0,1-.3-.3V14.222a1.257,1.257,0,0,1,1.255-1.256H17.889a1.257,1.257,0,0,1,1.256,1.256V18.33A.3.3,0,0,1,18.841,18.635ZM4.914,18.026H18.537v-3.8a.648.648,0,0,0-.647-.647H5.562a.648.648,0,0,0-.647.647v3.8Z" transform="translate(0 -5.077)"/>
    <path id="Tracé_50" data-name="Tracé 50" d="M17.889,26.841H5.562a1.257,1.257,0,0,1-1.255-1.256V21.476a.3.3,0,0,1,.3-.3H18.842a.3.3,0,0,1,.3.3v4.108A1.258,1.258,0,0,1,17.889,26.841ZM4.915,21.78v3.8a.648.648,0,0,0,.647.647H17.889a.648.648,0,0,0,.647-.647v-3.8Z" transform="translate(0 -8.289)"/>
    <g id="Groupe_22" data-name="Groupe 22" transform="translate(6.268 17.942)">
      <path id="Tracé_51" data-name="Tracé 51" d="M7.834,31.625a.3.3,0,0,1-.281-.42l.633-1.528a.3.3,0,0,1,.562.232l-.633,1.528A.3.3,0,0,1,7.834,31.625Z" transform="translate(-7.53 -29.487)"/>
      <path id="Tracé_52" data-name="Tracé 52" d="M24.367,31.625a.3.3,0,0,1-.281-.188l-.632-1.528a.3.3,0,0,1,.562-.232l.632,1.528a.3.3,0,0,1-.165.4A.3.3,0,0,1,24.367,31.625Z" transform="translate(-13.755 -29.487)"/>
    </g>
    <path id="Tracé_53" data-name="Tracé 53" d="M16.557,16.693H15.134a.3.3,0,1,1,0-.608h1.423a.3.3,0,1,1,0,.608Z" transform="translate(-4.12 -6.298)"/>
    <path id="Tracé_54" data-name="Tracé 54" d="M16.557,24.9H15.134a.3.3,0,1,1,0-.608h1.423a.3.3,0,1,1,0,.608Z" transform="translate(-4.12 -9.511)"/>
    <path id="Tracé_55" data-name="Tracé 55" d="M14.451,12.781H10.4a.3.3,0,0,1-.3-.3V11.244a.3.3,0,0,1,.3-.3h4.046a.3.3,0,0,1,.3.3v1.232A.3.3,0,0,1,14.451,12.781Zm-3.743-.608h3.438v-.624H10.708Z" transform="translate(-2.268 -4.283)"/>
    <path id="Tracé_56" data-name="Tracé 56" d="M14.681,3.872H9.335a.3.3,0,0,1-.29-.4L10.09.212A.3.3,0,0,1,10.38,0h3.258a.305.305,0,0,1,.29.212l1.044,3.263a.3.3,0,0,1-.29.4Zm-4.93-.608h4.513L13.415.608H10.6Z" transform="translate(-1.85)"/>
    <path id="Tracé_57" data-name="Tracé 57" d="M13.728,9.365a.3.3,0,0,1-.3-.3V5.667a.3.3,0,0,1,.608,0V9.061A.3.3,0,0,1,13.728,9.365Z" transform="translate(-3.57 -2.1)"/>
    <path id="Tracé_58" data-name="Tracé 58" d="M16.3,7.016a.3.3,0,0,1-.3-.3V5.667a.3.3,0,1,1,.608,0V6.711A.3.3,0,0,1,16.3,7.016Z" transform="translate(-4.578 -2.1)"/>
  </g>
</svg>
