<svg xmlns="http://www.w3.org/2000/svg" width="25" height="25" viewBox="0 0 25 25">
  <g id="shopping-cart_1_" data-name="shopping-cart (1)" transform="translate(0 0)">
    <path id="Tracé_3" data-name="Tracé 3" d="M24.325,16.461H39.148A2.956,2.956,0,0,0,42.2,13.625V7.767a.061.061,0,0,0-.006-.031c0-.01-.006-.026-.006-.036s-.006-.021-.006-.031a.31.31,0,0,1-.011-.036c-.006-.01-.006-.021-.011-.031s-.006-.021-.011-.031a.241.241,0,0,1-.017-.036.111.111,0,0,0-.017-.026L42.1,7.48c-.006-.01-.011-.015-.017-.026s-.017-.021-.022-.031A.092.092,0,0,0,42.04,7.4c-.006-.01-.017-.015-.022-.026S42,7.356,42,7.346s-.017-.015-.022-.021L41.946,7.3c-.011-.005-.017-.015-.028-.021s-.022-.015-.033-.021-.017-.01-.028-.015a.117.117,0,0,1-.033-.021l-.033-.015-.033-.015-.033-.015c-.011-.005-.022-.005-.033-.01a.108.108,0,0,0-.039-.01.256.256,0,0,1-.028-.005.13.13,0,0,0-.044-.005c-.006,0-.011-.005-.022-.005L22.772,4.731V2.3a.294.294,0,0,0-.006-.072.037.037,0,0,0-.006-.021c0-.015-.006-.031-.006-.046s-.006-.026-.011-.041-.006-.015-.006-.026l-.017-.046c0-.005-.006-.015-.006-.021a.15.15,0,0,0-.022-.041c-.006-.005-.006-.015-.011-.021a.107.107,0,0,0-.022-.031c-.006-.01-.011-.015-.017-.026s-.011-.015-.017-.026-.017-.021-.022-.031l-.017-.015L22.556,1.8l-.017-.015a.237.237,0,0,0-.039-.031c-.006-.005-.017-.01-.022-.015s-.022-.015-.033-.026-.033-.021-.044-.026-.011-.005-.017-.01l-.072-.031L18.238.055a.767.767,0,0,0-.979.37.676.676,0,0,0,.4.909l3.616,1.418v15.2a2.92,2.92,0,0,0,2.659,2.81A2.656,2.656,0,0,0,23.5,22.2a3.021,3.021,0,0,0,6.027,0,2.6,2.6,0,0,0-.415-1.413h6.712a2.615,2.615,0,0,0-.415,1.413,3.021,3.021,0,0,0,6.027,0,2.919,2.919,0,0,0-3.013-2.8h-14.1a1.509,1.509,0,0,1-1.559-1.449V16.07A3.268,3.268,0,0,0,24.325,16.461Zm3.715,5.734a1.525,1.525,0,1,1-1.52-1.413A1.472,1.472,0,0,1,28.041,22.195Zm11.909,0a1.525,1.525,0,1,1-1.52-1.413A1.472,1.472,0,0,1,39.95,22.195Zm-.8-7.121H24.325a1.509,1.509,0,0,1-1.559-1.449v-7.5l17.941,2.3v5.195A1.51,1.51,0,0,1,39.148,15.074Z" transform="translate(-17.2 0)"/>
  </g>
</svg>
