<svg xmlns="http://www.w3.org/2000/svg" width="17.401" height="20.759" viewBox="0 0 17.401 20.759">
  <g id="support_1_" data-name="support (1)" transform="translate(-35.4)">
    <g id="Groupe_25" data-name="Groupe 25" transform="translate(35.4)">
      <g id="Groupe_24" data-name="Groupe 24" transform="translate(0)">
        <path id="Tracé_77" data-name="Tracé 77" d="M46.273,300.4H41.909a6.519,6.519,0,0,0-6.509,6.509H52.8A6.56,6.56,0,0,0,46.273,300.4Z" transform="translate(-35.4 -286.149)" fill="#fff"/>
        <path id="Tracé_78" data-name="Tracé 78" d="M128.694,90.906a1.405,1.405,0,0,1,.911.323h1.575a4.513,4.513,0,1,0-7.78-3.112,4.525,4.525,0,0,0,2.315,3.947,1.478,1.478,0,0,1,1.423-1.158Z" transform="translate(-119.225 -79.634)" fill="#fff"/>
        <path id="Tracé_79" data-name="Tracé 79" d="M75.133,8.862A2.12,2.12,0,0,0,75.74,10.1a2.29,2.29,0,0,0,.93.55.851.851,0,0,1-.019-.209V6.755a.924.924,0,0,1,.019-.228,2.029,2.029,0,0,0-.93.55l-.076.076V7a6.509,6.509,0,0,1,.095-1.063,4.542,4.542,0,0,1,.285-1.025,4.511,4.511,0,0,1,.455-.968,5.522,5.522,0,0,1,.607-.873A.144.144,0,0,0,77.144,3a.56.56,0,0,0,.455-.152,5.91,5.91,0,0,1,8.349,0A.539.539,0,0,0,86.4,3c.019.019.019.057.038.076a5.523,5.523,0,0,1,.607.873,7.56,7.56,0,0,1,.455.968,9.383,9.383,0,0,1,.285,1.044,6.508,6.508,0,0,1,.095,1.063v.152c-.019-.038-.057-.057-.076-.076a2.29,2.29,0,0,0-.93-.55.924.924,0,0,1,.019.228v3.662a.712.712,0,0,1-.019.209,1.67,1.67,0,0,0,.285-.095v1.2a1.912,1.912,0,0,1-.038.361.534.534,0,0,1-.095.209.413.413,0,0,1-.152.095.961.961,0,0,1-.247.038h-3.51a.63.63,0,0,0-.55-.323H81.015a.611.611,0,0,0-.607.607.628.628,0,0,0,.626.607H82.59a.654.654,0,0,0,.55-.323H86.8a1.11,1.11,0,0,0,.361-.076,1.011,1.011,0,0,0,.38-.247,1.252,1.252,0,0,0,.228-.417,2.265,2.265,0,0,0,.076-.55V10.152L87.9,10.1a2.12,2.12,0,0,0,.607-1.233c.019-.019.038-.019.038-.038a.35.35,0,0,0,.095-.228V7.021a7.979,7.979,0,0,0-.095-1.176c-.114-.4-.209-.778-.342-1.158a5.643,5.643,0,0,0-.512-1.082,5.591,5.591,0,0,0-.683-.968.189.189,0,0,0-.095-.076.578.578,0,0,0-.152-.512A6.966,6.966,0,0,0,81.812,0a7.042,7.042,0,0,0-4.972,2.049.578.578,0,0,0-.152.512.333.333,0,0,0-.095.076,5.59,5.59,0,0,0-.683.968A9.454,9.454,0,0,0,75.4,4.687a6.115,6.115,0,0,0-.3,1.158A6.031,6.031,0,0,0,75,7.021V8.6a.314.314,0,0,0,.095.228C75.114,8.843,75.133,8.843,75.133,8.862Z" transform="translate(-73.121 0)" fill="#fff"/>
      </g>
    </g>
  </g>
</svg>
