<svg xmlns="http://www.w3.org/2000/svg" width="16.393" height="12.41" viewBox="0 0 16.393 12.41">
  <g id="truck-icon" transform="translate(0 -6.159)">
    <g id="Groupe_7" data-name="Groupe 7" transform="translate(0 6.159)">
      <g id="Groupe_6" data-name="Groupe 6">
        <path id="Tracé_21" data-name="Tracé 21" d="M8.128,34.554a1.613,1.613,0,1,0,1.613,1.614A1.613,1.613,0,0,0,8.128,34.554Zm0,2.15a.536.536,0,1,1,.537-.536A.536.536,0,0,1,8.128,36.7Z" transform="translate(-4.408 -25.371)"/>
        <path id="Tracé_22" data-name="Tracé 22" d="M36.149,34.554a1.613,1.613,0,1,0,1.613,1.614A1.613,1.613,0,0,0,36.149,34.554Zm0,2.15a.536.536,0,1,1,.537-.536A.536.536,0,0,1,36.149,36.7Z" transform="translate(-23.367 -25.371)"/>
        <path id="Tracé_23" data-name="Tracé 23" d="M16.071,15.144h-.111V11.138a1.144,1.144,0,0,0-.2-.594l-1.833-2.41a.755.755,0,0,0-.532-.263H10.417V6.49a.33.33,0,0,0-.331-.331H1.819A1.323,1.323,0,0,0,.5,7.482v7.662H.323A.323.323,0,0,0,0,15.468v1.156a.331.331,0,0,0,.331.331H1.46a2.26,2.26,0,0,1,4.52,0h4.542a2.26,2.26,0,0,1,4.519,0h1.021a.331.331,0,0,0,.331-.331V15.468A.321.321,0,0,0,16.071,15.144Zm-4.814-4.089V9.123h1.378a.711.711,0,0,1,.5.253l1.231,1.68Z" transform="translate(0 -6.159)"/>
      </g>
    </g>
  </g>
</svg>
