<svg xmlns="http://www.w3.org/2000/svg" width="21.382" height="21.382" viewBox="0 0 21.382 21.382">
  <g id="shopping-cart_1_" data-name="shopping-cart (1)" transform="translate(0)">
    <path id="Tracé_3" data-name="Tracé 3" d="M23.294,14.078H35.972a2.528,2.528,0,0,0,2.61-2.426V6.643a.052.052,0,0,0,0-.026c0-.009,0-.022,0-.031s0-.018,0-.026a.265.265,0,0,1-.009-.031c0-.009,0-.018-.009-.026s0-.018-.009-.026a.205.205,0,0,1-.014-.031.1.1,0,0,0-.014-.022L38.5,6.4c0-.009-.009-.013-.014-.022s-.014-.018-.019-.026a.078.078,0,0,0-.019-.022c0-.009-.014-.013-.019-.022s-.014-.013-.019-.022-.014-.013-.019-.018l-.024-.022c-.009,0-.014-.013-.024-.018s-.019-.013-.028-.018l-.024-.013a.1.1,0,0,1-.028-.018l-.028-.013L38.2,6.151l-.028-.013c-.009,0-.019,0-.028-.009a.093.093,0,0,0-.033-.009.218.218,0,0,1-.024,0,.112.112,0,0,0-.038,0s-.009,0-.019,0L21.965,4.046V1.963a.252.252,0,0,0,0-.062.031.031,0,0,0,0-.018c0-.013,0-.026,0-.04s0-.022-.009-.035,0-.013,0-.022l-.014-.04s0-.013,0-.018A.128.128,0,0,0,21.9,1.7s0-.013-.009-.018a.092.092,0,0,0-.019-.026c0-.009-.009-.013-.014-.022s-.009-.013-.014-.022-.014-.018-.019-.026l-.014-.013-.028-.026-.014-.013a.2.2,0,0,0-.033-.026s-.014-.009-.019-.013-.019-.013-.028-.022-.028-.018-.038-.022-.009,0-.014-.009l-.061-.026L18.088.047a.656.656,0,0,0-.837.316.578.578,0,0,0,.34.778l3.093,1.213v13a2.5,2.5,0,0,0,2.275,2.4,2.271,2.271,0,0,0-.369,1.23,2.584,2.584,0,0,0,5.154,0,2.225,2.225,0,0,0-.355-1.208H33.13a2.236,2.236,0,0,0-.355,1.208,2.584,2.584,0,0,0,5.154,0,2.5,2.5,0,0,0-2.577-2.395H23.294a1.29,1.29,0,0,1-1.333-1.239V13.744A2.8,2.8,0,0,0,23.294,14.078Zm3.178,4.9a1.3,1.3,0,1,1-1.3-1.208A1.259,1.259,0,0,1,26.472,18.983Zm10.186,0a1.3,1.3,0,1,1-1.3-1.208A1.259,1.259,0,0,1,36.657,18.983Zm-.686-6.091H23.294a1.29,1.29,0,0,1-1.333-1.239V5.241L37.305,7.206v4.443A1.291,1.291,0,0,1,35.972,12.892Z" transform="translate(-17.2 0)" fill="#fff"/>
  </g>
</svg>
