<svg xmlns="http://www.w3.org/2000/svg" width="20.69" height="11.035" viewBox="0 0 20.69 11.035">
  <g id="outline" transform="translate(-2 -16)">
    <path id="Tracé_41" data-name="Tracé 41" d="M22.345,24.966H22V24.3a3.113,3.113,0,0,0-2.273-2.99l-4.119-1.144-3.379-2.7L10.863,16.1a.345.345,0,0,0-.243-.1H8.9a.345.345,0,0,0-.276.552L9.478,17.7a4.057,4.057,0,0,1-2.651.718,6.444,6.444,0,0,1-3.586-.966.345.345,0,0,0-.543.2l-.69,3.1a.345.345,0,0,0,0,.138l.615,3.385H2.345A.345.345,0,0,0,2,24.621v.69a1.726,1.726,0,0,0,1.724,1.724H21.655A1.034,1.034,0,0,0,22.69,26v-.69A.345.345,0,0,0,22.345,24.966ZM10.478,16.69l1.278,1.278.028.026.466.372-.839.839.488.488.893-.893.416.333-.762.762.488.488.816-.816.416.333-.686.686.488.488.74-.74.386.308c-.1.767-.942,1.09-1.289,1.191L9.545,18.486a2.161,2.161,0,0,0,.673-.569.345.345,0,0,0-.011-.4l-.621-.828ZM3.266,18.27a7.548,7.548,0,0,0,3.561.834,6.177,6.177,0,0,0,2.009-.3l4.674,3.672a.345.345,0,0,0,.213.074.321.321,0,0,0,.069-.007,2.5,2.5,0,0,0,1.948-1.623l3.8,1.057A2.421,2.421,0,0,1,21.31,24.3v.662H20.144l.442-.88-.617-.308-.6,1.189H18.42l.442-.88-.617-.308-.6,1.189H16.7l.442-.88a.345.345,0,0,0-.31-.5H13.5L8.765,19.867a.345.345,0,0,0-.213-.074H6.138a.345.345,0,0,0-.214.616L11.7,24.966H10.012l-1.209-.6c-1.532-2.921-4.886-3.66-6.039-3.83l.215-.966,1.671.557.218-.655-1.738-.579Zm12.658,6.7H12.809L7.131,20.483h1.3L13.166,24.2a.345.345,0,0,0,.213.074h2.89ZM2.769,21.232a7.767,7.767,0,0,1,5.188,3.043H3.322ZM22,26a.345.345,0,0,1-.345.345H3.724A1.034,1.034,0,0,1,2.689,25.31v-.345H8.47l1.307.655a.345.345,0,0,0,.154.034H22Z" transform="translate(0)"/>
    <rect id="Rectangle_608" data-name="Rectangle 608" width="0.69" height="0.69" transform="translate(16.138 21.862)"/>
    <rect id="Rectangle_609" data-name="Rectangle 609" width="0.69" height="0.69" transform="translate(17.517 22.207)"/>
  </g>
</svg>
