<svg xmlns="http://www.w3.org/2000/svg" width="18.309" height="18.639" viewBox="0 0 18.309 18.639">
  <path id="cosmetics" d="M17.167,13.8H14.531a7.418,7.418,0,0,0-8.862-11.9V.583a.583.583,0,0,0-.887-.5L2.152,1.706a.586.586,0,0,0-.277.5V6.154h-.54a.273.273,0,0,0-.273.273v1.8a.273.273,0,0,0,.546,0V6.7H5.936v3.76H1.609V9.245a.273.273,0,1,0-.546,0V10.46H.654A.655.655,0,0,0,0,11.114v5.372a2.155,2.155,0,0,0,2.153,2.153H5.392a2.153,2.153,0,0,0,1.8-.967h6.626a.273.273,0,1,0,0-.546H7.463a12.843,12.843,0,0,0,.081-2.775h9.623a.6.6,0,0,1,.6.6,2.182,2.182,0,0,1-2.18,2.18h-.749a.273.273,0,0,0,0,.546h.749a2.729,2.729,0,0,0,2.726-2.726A1.143,1.143,0,0,0,17.167,13.8ZM2.439,2.171C5.129.515,5.123.488,5.123.583V6.138l-.006.016h-2.7c.007-4.207-.016-3.963.017-3.983Zm3.77,3.983H5.7a4.713,4.713,0,1,1,1.846,5.672V11.26a.8.8,0,0,0-.8-.8H6.482V6.427a.273.273,0,0,0-.273-.273ZM.654,11.006H6.726A.273.273,0,0,1,7,11.279v4.256H.546v-4.42a.109.109,0,0,1,.108-.108Zm4.737,7.087H2.153A1.609,1.609,0,0,1,.546,16.486v-.406H7v.406A1.609,1.609,0,0,1,5.392,18.093ZM7.545,13.8V12.463A5.263,5.263,0,1,0,5.669,5.02V2.6a6.872,6.872,0,1,1,7.874,11.2h-6Zm0,0" transform="translate(0 0)"/>
</svg>
