<svg xmlns="http://www.w3.org/2000/svg" width="20.544" height="18.219" viewBox="0 0 20.544 18.219">
  <g id="credit-cards" transform="translate(-8 -18.607)">
    <g id="Groupe_23" data-name="Groupe 23" transform="translate(8 18.607)">
      <path id="Tracé_61" data-name="Tracé 61" d="M22.141,21.217v1.776l.086.209-.086.035v3.132l1.181-.482.259.634a.543.543,0,0,1-.287.711L9.038,33.051a.549.549,0,0,1-.7-.307l-.259-.634,10.911-4.454H11.316L6.981,29.426l-.722-1.77H5.534L7.715,33a1.215,1.215,0,0,0,1.127.763,1.187,1.187,0,0,0,.45-.088l14.257-5.819a1.215,1.215,0,0,0,.654-1.586Z" transform="translate(-3.75 -15.542)" fill="#fff"/>
      <path id="Tracé_62" data-name="Tracé 62" d="M44.339,25.532V25.1l-.25.432Z" transform="translate(-29.88 -18.173)" fill="#fff"/>
      <path id="Tracé_63" data-name="Tracé 63" d="M17.486,25.1l-.25.432h.25Z" transform="translate(-11.681 -18.173)" fill="#fff"/>
      <path id="Tracé_64" data-name="Tracé 64" d="M22.557,26.366a.2.2,0,0,0,.037-.128.192.192,0,0,0-.043-.134.137.137,0,0,0-.105-.047.139.139,0,0,0-.089.031.172.172,0,0,0-.058.145.2.2,0,0,0,.044.132.139.139,0,0,0,.111.051A.124.124,0,0,0,22.557,26.366Z" transform="translate(-15.112 -18.822)" fill="#fff"/>
      <path id="Tracé_65" data-name="Tracé 65" d="M8.768,34.081a.179.179,0,0,0,.1-.033.136.136,0,0,0,.049-.119v-.064a.2.2,0,0,1-.034.017.31.31,0,0,1-.046.012L8.8,33.9a.254.254,0,0,0-.08.024A.079.079,0,0,0,8.682,34a.076.076,0,0,0,.025.063A.1.1,0,0,0,8.768,34.081Z" transform="translate(-5.884 -24.113)" fill="#fff"/>
      <path id="Tracé_66" data-name="Tracé 66" d="M29.766,26.511a.139.139,0,0,0,.106-.041.192.192,0,0,0,0-.231.16.16,0,0,0-.211,0,.159.159,0,0,0-.039.116.161.161,0,0,0,.038.115A.139.139,0,0,0,29.766,26.511Z" transform="translate(-20.075 -18.919)" fill="#fff"/>
      <path id="Tracé_67" data-name="Tracé 67" d="M14.395,33.2a.137.137,0,0,0-.1.037.179.179,0,0,0-.046.1h.3a.144.144,0,0,0-.046-.1A.153.153,0,0,0,14.395,33.2Z" transform="translate(-9.655 -23.662)" fill="#fff"/>
      <path id="Tracé_68" data-name="Tracé 68" d="M32.206,24.962a.137.137,0,0,0-.086.028.18.18,0,0,0-.057.15.21.21,0,0,0,.036.134.151.151,0,0,0,.188.021.162.162,0,0,0,.067-.148.21.21,0,0,0-.039-.135A.131.131,0,0,0,32.206,24.962Z" transform="translate(-21.73 -18.08)" fill="#fff"/>
      <path id="Tracé_69" data-name="Tracé 69" d="M29.8,25.2a.122.122,0,0,0,.093-.035.125.125,0,0,0,.033-.089.129.129,0,0,0-.033-.093.146.146,0,0,0-.186,0,.126.126,0,0,0-.034.093.118.118,0,0,0,.127.124Z" transform="translate(-20.112 -18.074)" fill="#fff"/>
      <path id="Tracé_70" data-name="Tracé 70" d="M21,33.9a.246.246,0,0,0-.079.024.079.079,0,0,0-.041.073.076.076,0,0,0,.025.063.1.1,0,0,0,.061.02.178.178,0,0,0,.1-.033.136.136,0,0,0,.049-.119v-.064a.181.181,0,0,1-.034.017.31.31,0,0,1-.046.012Z" transform="translate(-14.153 -24.114)" fill="#fff"/>
      <path id="Tracé_71" data-name="Tracé 71" d="M29.994,33.9a.241.241,0,0,0-.08.024.079.079,0,0,0-.041.073.076.076,0,0,0,.025.063.1.1,0,0,0,.061.02.179.179,0,0,0,.1-.033.136.136,0,0,0,.049-.119v-.064a.191.191,0,0,1-.034.017.31.31,0,0,1-.046.012Z" transform="translate(-20.245 -24.114)" fill="#fff"/>
      <path id="Tracé_72" data-name="Tracé 72" d="M35.481,33.236a.179.179,0,0,0-.046.1h.3a.145.145,0,0,0-.046-.1.152.152,0,0,0-.1-.035A.136.136,0,0,0,35.481,33.236Z" transform="translate(-24.015 -23.662)" fill="#fff"/>
      <path id="Tracé_73" data-name="Tracé 73" d="M49.307,26.416a.123.123,0,0,0,.1-.049.2.2,0,0,0,.038-.128A.192.192,0,0,0,49.4,26.1a.136.136,0,0,0-.105-.047.138.138,0,0,0-.089.031.172.172,0,0,0-.058.145.194.194,0,0,0,.044.132A.139.139,0,0,0,49.307,26.416Z" transform="translate(-33.312 -18.822)" fill="#fff"/>
      <path id="Tracé_74" data-name="Tracé 74" d="M5.251,25.579a.114.114,0,0,0,.116.092.113.113,0,0,0,.115-.092.918.918,0,0,0,.026-.221c0-.015,0-.027,0-.043a.975.975,0,0,0-.027-.268.111.111,0,0,0-.115-.087.113.113,0,0,0-.116.087.918.918,0,0,0-.028.268,1.38,1.38,0,0,0,.008.156A.479.479,0,0,0,5.251,25.579Z" transform="translate(-3.54 -18.078)" fill="#fff"/>
      <path id="Tracé_75" data-name="Tracé 75" d="M.7,14.987a1.194,1.194,0,0,0,.512.119H16.757a1.2,1.2,0,0,0,.842-.347,1.233,1.233,0,0,0,.371-.881V4.836a1.232,1.232,0,0,0-.371-.881,1.2,1.2,0,0,0-.842-.348H1.214A1.223,1.223,0,0,0,0,4.836v9.04A1.23,1.23,0,0,0,.7,14.987Zm.78-4.143a.781.781,0,0,1,.077-.383.282.282,0,0,1,.268-.135.283.283,0,0,1,.268.135.748.748,0,0,1,.073.343c0,.014,0,.024,0,.039a.776.776,0,0,1-.077.382.284.284,0,0,1-.268.134.283.283,0,0,1-.268-.134.54.54,0,0,1-.053-.15A1.062,1.062,0,0,1,1.481,10.844Zm9.392-4.013a1.651,1.651,0,0,1,2.621-1.342A1.653,1.653,0,0,1,16.17,6.773a1.653,1.653,0,0,1-1.65,1.651,1.636,1.636,0,0,1-.955-.309,1.653,1.653,0,0,1-2.637-.885A1.612,1.612,0,0,1,10.873,6.831Zm-.312,6.37a.085.085,0,0,0-.086-.048.1.1,0,0,0-.1.048.185.185,0,0,0-.014.081v.4h-.175V13.02h.168v.1a.276.276,0,0,1,.061-.073.24.24,0,0,1,.253-.006.192.192,0,0,1,.057.08.223.223,0,0,1,.084-.086A.255.255,0,0,1,10.928,13a.236.236,0,0,1,.086.017.192.192,0,0,1,.077.06.185.185,0,0,1,.037.085.565.565,0,0,1,.006.1v.416h-.177v-.421a.137.137,0,0,0-.013-.062.086.086,0,0,0-.084-.046.1.1,0,0,0-.1.06.19.19,0,0,0-.014.075v.394h-.174v-.394A.213.213,0,0,0,10.561,13.2Zm.013-2.228a.262.262,0,0,1-.136.033.309.309,0,0,1-.212-.083.3.3,0,0,1-.093-.238.367.367,0,0,1,.093-.261.343.343,0,0,1,.555.1.783.783,0,0,1,.048.3.847.847,0,0,1-.046.3.324.324,0,0,1-.325.231.33.33,0,0,1-.2-.067.264.264,0,0,1-.1-.194h.2a.123.123,0,0,0,.037.072.114.114,0,0,0,.081.027.14.14,0,0,0,.136-.108.614.614,0,0,0,.027-.173A.184.184,0,0,1,10.574,10.973ZM9.4,10.7a.3.3,0,0,1-.022-.105.247.247,0,0,1,.082-.187.391.391,0,0,1,.465,0,.245.245,0,0,1,.082.187.3.3,0,0,1-.022.105.2.2,0,0,1-.094.1A.28.28,0,0,1,10,10.9a.315.315,0,0,1,.038.153.285.285,0,0,1-.094.215.366.366,0,0,1-.262.089.341.341,0,0,1-.255-.089.3.3,0,0,1-.087-.215A.309.309,0,0,1,9.38,10.9a.241.241,0,0,1,.111-.1A.232.232,0,0,1,9.4,10.7Zm.442,2.461a.181.181,0,0,0-.084-.016.11.11,0,0,0-.088.031.123.123,0,0,0-.024.061H9.476a.254.254,0,0,1,.049-.142A.284.284,0,0,1,9.761,13a.427.427,0,0,1,.194.043.166.166,0,0,1,.084.163v.3c0,.021,0,.046,0,.076a.1.1,0,0,0,.01.046.068.068,0,0,0,.026.02v.025H9.888a.172.172,0,0,1-.011-.038.389.389,0,0,1,0-.04.351.351,0,0,1-.083.066.248.248,0,0,1-.127.033.221.221,0,0,1-.149-.051.182.182,0,0,1-.059-.145.188.188,0,0,1,.095-.176.424.424,0,0,1,.153-.042l.059-.007a.3.3,0,0,0,.069-.015.052.052,0,0,0,.037-.049A.06.06,0,0,0,9.839,13.158Zm-.691.04a.1.1,0,0,0-.1-.051.12.12,0,0,0-.12.074.256.256,0,0,0-.017.1v.357H8.743V13.02H8.91v.1a.288.288,0,0,1,.063-.073A.217.217,0,0,1,9.107,13a.251.251,0,0,1,.167.054.217.217,0,0,1,.065.178v.445H9.162v-.4A.179.179,0,0,0,9.148,13.2Zm-.959.35a.114.114,0,0,0,.063.01h.034v.129l-.082,0a.223.223,0,0,1-.167-.042.128.128,0,0,1-.029-.092v-.407H7.916v-.122h.092V12.84h.171v.185h.107v.122H8.179V13.5C8.179,13.524,8.182,13.541,8.189,13.548Zm.034-2.662a1.4,1.4,0,0,0-.076.228.947.947,0,0,0-.034.221h-.2a1.208,1.208,0,0,1,.177-.56,1.336,1.336,0,0,1,.182-.251h-.5l0-.177h.707V10.5a1.2,1.2,0,0,0-.123.155A1.307,1.307,0,0,0,8.223,10.886Zm-2.815.233v-.172l.368-.608H6v.626h.113v.154H6v.216H5.8V11.12Zm.451,1.667h.187v.733h.446v.161H5.859Zm.439-1.5a.3.3,0,0,1-.1-.218h.2a.19.19,0,0,0,.045.1.126.126,0,0,0,.1.035.131.131,0,0,0,.112-.052.208.208,0,0,0,.038-.129.229.229,0,0,0-.036-.13.126.126,0,0,0-.112-.053.189.189,0,0,0-.062.009.124.124,0,0,0-.07.061L6.226,10.9l.07-.553h.551v.167H6.438l-.036.219a.374.374,0,0,1,.071-.039.3.3,0,0,1,.1-.016A.3.3,0,0,1,6.886,11a.385.385,0,0,1-.089.248.323.323,0,0,1-.267.109A.347.347,0,0,1,6.3,11.284Zm.645,1.873a.181.181,0,0,0-.084-.016.111.111,0,0,0-.088.031.12.12,0,0,0-.024.061H6.579a.254.254,0,0,1,.049-.142A.284.284,0,0,1,6.864,13a.427.427,0,0,1,.194.043.166.166,0,0,1,.085.163v.3c0,.021,0,.046,0,.076a.1.1,0,0,0,.01.046.068.068,0,0,0,.026.02v.025H6.992a.22.22,0,0,1-.011-.038.4.4,0,0,1,0-.04.351.351,0,0,1-.083.066.249.249,0,0,1-.127.033.222.222,0,0,1-.149-.051.182.182,0,0,1-.059-.145.188.188,0,0,1,.095-.176.424.424,0,0,1,.153-.042l.059-.007a.292.292,0,0,0,.069-.015.055.055,0,0,0,.037-.05A.06.06,0,0,0,6.942,13.158ZM7.059,11.2a.642.642,0,0,1-.07-.319A1.455,1.455,0,0,1,7,10.7a.572.572,0,0,1,.067-.213.341.341,0,0,1,.112-.117.3.3,0,0,1,.166-.044.33.33,0,0,1,.223.072.272.272,0,0,1,.093.19h-.2a.1.1,0,0,0-.019-.053.108.108,0,0,0-.1-.047.141.141,0,0,0-.137.108.674.674,0,0,0-.031.176.221.221,0,0,1,.085-.063.283.283,0,0,1,.111-.02.287.287,0,0,1,.219.091.325.325,0,0,1,.085.231.391.391,0,0,1-.083.248.309.309,0,0,1-.26.107A.3.3,0,0,1,7.059,11.2Zm.6,2.261a.991.991,0,0,0-.181-.052.382.382,0,0,1-.158-.07.152.152,0,0,1-.046-.119.206.206,0,0,1,.072-.158.29.29,0,0,1,.2-.066.369.369,0,0,1,.2.05.21.21,0,0,1,.09.17H7.665a.1.1,0,0,0-.019-.053.12.12,0,0,0-.1-.035.144.144,0,0,0-.081.017.051.051,0,0,0-.024.042.045.045,0,0,0,.025.043,1.1,1.1,0,0,0,.18.048.327.327,0,0,1,.155.074.166.166,0,0,1,.051.124.2.2,0,0,1-.073.16.345.345,0,0,1-.226.062.339.339,0,0,1-.23-.066.214.214,0,0,1-.074-.168h.175a.115.115,0,0,0,.024.065.159.159,0,0,0,.12.035.183.183,0,0,0,.081-.015.048.048,0,0,0,.03-.045A.049.049,0,0,0,7.657,13.464Zm-3,.074a.177.177,0,0,0,.1.025.146.146,0,0,0,.1-.03.137.137,0,0,0,.035-.046h.176a.216.216,0,0,1-.064.12.321.321,0,0,1-.248.1.36.36,0,0,1-.233-.081.32.32,0,0,1-.1-.264.357.357,0,0,1,.091-.263A.32.32,0,0,1,4.74,13a.377.377,0,0,1,.155.031.262.262,0,0,1,.114.1.332.332,0,0,1,.053.136.815.815,0,0,1,.006.131H4.587A.159.159,0,0,0,4.656,13.538ZM4.5,10.6a.22.22,0,0,1-.053.15.179.179,0,0,1-.069.052.139.139,0,0,1,.077.046.247.247,0,0,1,.075.191.323.323,0,0,1-.088.224.336.336,0,0,1-.26.1.316.316,0,0,1-.3-.139.413.413,0,0,1-.048-.193h.193a.229.229,0,0,0,.019.1.132.132,0,0,0,.131.073.144.144,0,0,0,.1-.04.148.148,0,0,0,.043-.114.128.128,0,0,0-.08-.132.4.4,0,0,0-.143-.019v-.141a.361.361,0,0,0,.134-.019.1.1,0,0,0,.055-.071.146.146,0,0,0,.011-.047.133.133,0,0,0-.033-.093.123.123,0,0,0-.094-.036.119.119,0,0,0-.1.044.185.185,0,0,0-.031.118H3.853a.487.487,0,0,1,.026-.141.321.321,0,0,1,.076-.109.268.268,0,0,1,.092-.054.394.394,0,0,1,.131-.019.348.348,0,0,1,.232.074.244.244,0,0,1,.084.179A.177.177,0,0,1,4.5,10.6Zm-.381,2.6a.087.087,0,0,0-.085-.046.1.1,0,0,0-.1.06.184.184,0,0,0-.014.075v.394H3.744v-.394a.219.219,0,0,0-.012-.085.084.084,0,0,0-.085-.048.1.1,0,0,0-.1.048.185.185,0,0,0-.014.081v.4H3.358V13.02h.168v.1a.276.276,0,0,1,.061-.073A.208.208,0,0,1,3.717,13a.2.2,0,0,1,.122.033.187.187,0,0,1,.057.08.226.226,0,0,1,.084-.086A.254.254,0,0,1,4.1,13a.235.235,0,0,1,.086.017.2.2,0,0,1,.077.06.188.188,0,0,1,.037.085.565.565,0,0,1,.006.1v.416H4.127v-.421A.128.128,0,0,0,4.116,13.2Zm8.042-2.66a.143.143,0,0,0-.223.025.337.337,0,0,0-.022.123h-.191a.483.483,0,0,1,.047-.207.288.288,0,0,1,.28-.15.355.355,0,0,1,.253.088.3.3,0,0,1,.094.233.317.317,0,0,1-.066.2.677.677,0,0,1-.143.128l-.079.056c-.049.035-.083.061-.1.076a.229.229,0,0,0-.046.055H12.4v.174H11.71a.467.467,0,0,1,.046-.2.557.557,0,0,1,.2-.212,1.457,1.457,0,0,0,.176-.14.207.207,0,0,0,.061-.143A.161.161,0,0,0,12.158,10.537Zm-.433,2.5a.258.258,0,0,1,.114.1.328.328,0,0,1,.053.136.792.792,0,0,1,.005.131h-.481a.159.159,0,0,0,.069.14.177.177,0,0,0,.1.025.146.146,0,0,0,.1-.03.142.142,0,0,0,.036-.046h.176a.217.217,0,0,1-.064.12.322.322,0,0,1-.248.1.36.36,0,0,1-.233-.081.32.32,0,0,1-.1-.264.358.358,0,0,1,.091-.263A.32.32,0,0,1,11.57,13,.366.366,0,0,1,11.724,13.033Zm-.31-1.7h-.2v-.691h-.235V10.51a.837.837,0,0,0,.13-.013.182.182,0,0,0,.1-.052.169.169,0,0,0,.039-.072.159.159,0,0,0,.007-.04h.165Zm2.269-.422a.4.4,0,0,0-.143-.019v-.141a.362.362,0,0,0,.134-.019.115.115,0,0,0,.066-.118.132.132,0,0,0-.034-.093.123.123,0,0,0-.094-.036.119.119,0,0,0-.1.044.187.187,0,0,0-.031.118H13.3a.476.476,0,0,1,.025-.141A.321.321,0,0,1,13.4,10.4a.268.268,0,0,1,.092-.054.393.393,0,0,1,.13-.019.351.351,0,0,1,.232.074.248.248,0,0,1,.088.2.222.222,0,0,1-.053.149.175.175,0,0,1-.069.052.142.142,0,0,1,.078.046.247.247,0,0,1,.075.191.322.322,0,0,1-.088.223.336.336,0,0,1-.261.1.314.314,0,0,1-.3-.139.4.4,0,0,1-.048-.193h.193a.221.221,0,0,0,.02.1.132.132,0,0,0,.13.073.144.144,0,0,0,.1-.04.148.148,0,0,0,.043-.114A.13.13,0,0,0,13.684,10.913Zm1.082.052v.154h-.114v.216h-.193v-.216h-.4v-.172l.368-.608h.222v.626Zm.535-.075a.125.125,0,0,0-.112-.053.186.186,0,0,0-.062.009.125.125,0,0,0-.07.061l-.176-.008.07-.553H15.5v.167h-.41l-.036.219a.384.384,0,0,1,.071-.039.3.3,0,0,1,.1-.016.3.3,0,0,1,.309.326.385.385,0,0,1-.089.248.322.322,0,0,1-.267.109.354.354,0,0,1-.235-.076.3.3,0,0,1-.1-.218h.2a.187.187,0,0,0,.045.1.127.127,0,0,0,.1.035.132.132,0,0,0,.112-.052.214.214,0,0,0,.038-.13A.218.218,0,0,0,15.3,10.89Zm1.014-.3h-.2a.1.1,0,0,0-.019-.053.108.108,0,0,0-.1-.047.142.142,0,0,0-.137.108.677.677,0,0,0-.03.176.217.217,0,0,1,.085-.063.31.31,0,0,1,.329.071.325.325,0,0,1,.085.231.391.391,0,0,1-.084.248.309.309,0,0,1-.26.107.3.3,0,0,1-.279-.158.639.639,0,0,1-.07-.319,1.517,1.517,0,0,1,.01-.187.568.568,0,0,1,.067-.213.342.342,0,0,1,.112-.117A.3.3,0,0,1,16,10.323a.329.329,0,0,1,.222.072A.276.276,0,0,1,16.315,10.585ZM3.393,10.328a.354.354,0,0,1,.253.088.3.3,0,0,1,.094.233.315.315,0,0,1-.066.2.652.652,0,0,1-.141.126l0,0-.079.056c-.049.035-.083.061-.1.076a.229.229,0,0,0-.046.055h.437v.174H3.055a.475.475,0,0,1,.042-.184s0-.009,0-.013a.553.553,0,0,1,.2-.212,1.393,1.393,0,0,0,.176-.14.206.206,0,0,0,.062-.143.161.161,0,0,0-.035-.106.143.143,0,0,0-.223.025.325.325,0,0,0-.022.123H3.066a.483.483,0,0,1,.046-.207.261.261,0,0,1,.1-.1.306.306,0,0,1,.061-.025A.368.368,0,0,1,3.393,10.328ZM1.959,13.68H1.785v-.893h.2l.355.623v-.623H2.51v.893H2.323l-.363-.634v.634Zm.6-2.345v-.691H2.322V10.51a.842.842,0,0,0,.13-.013.182.182,0,0,0,.1-.052.172.172,0,0,0,.038-.072.163.163,0,0,0,.008-.04h.165v1h-.2ZM1.91,8.2V7.567h.64v.652H1.912C1.912,8.214,1.91,8.21,1.91,8.2Zm.64.852a.9.9,0,0,1-.568-.5h.568Zm.335-.5h.553V9.1H2.886Zm.889,0h.568a.9.9,0,0,1-.568.5v-.5Zm.64-.35c0,.005,0,.009,0,.015H3.776V7.567h.64V8.2Zm-.808-.973H3.439v.987H2.886V6.593h.636a.891.891,0,0,1,.851.638H3.607Zm-1.057,0h-.6a.891.891,0,0,1,.6-.6Zm.17,6.1a.425.425,0,0,1,.153-.042l.059-.007A.266.266,0,0,0,3,13.263a.052.052,0,0,0,.037-.049.059.059,0,0,0-.028-.056.181.181,0,0,0-.084-.016.111.111,0,0,0-.088.031.123.123,0,0,0-.024.061H2.648a.252.252,0,0,1,.049-.142A.284.284,0,0,1,2.932,13a.427.427,0,0,1,.194.043.166.166,0,0,1,.085.163v.3c0,.021,0,.046,0,.076a.1.1,0,0,0,.01.046.066.066,0,0,0,.025.02v.025H3.06a.172.172,0,0,1-.011-.038c0-.012,0-.025,0-.04a.351.351,0,0,1-.083.066.249.249,0,0,1-.127.033.222.222,0,0,1-.149-.051.182.182,0,0,1-.059-.145A.187.187,0,0,1,2.72,13.328Z" transform="translate(0 -3.607)" fill="#fff"/>
      <path id="Tracé_76" data-name="Tracé 76" d="M35.118,11.7a1.3,1.3,0,0,0,1.741.209h.555s.007-.008.011-.011a1.443,1.443,0,0,0,.242-.244H36.7a1.774,1.774,0,0,1-.106-.2h1.2a1.441,1.441,0,0,0,.106-.255H36.5c-.005-.02-.014-.04-.018-.061a1.391,1.391,0,0,1-.024-.16H37.95a1.457,1.457,0,0,0,.02-.2c0-.019,0-.036-.006-.055H36.445a1.665,1.665,0,0,1,.022-.214h1.475a1.462,1.462,0,0,0-.075-.255H36.53a1.667,1.667,0,0,1,.09-.22h1.136c-.024-.038-.055-.071-.081-.107a1.337,1.337,0,0,0-.113-.149h-.784c.015-.02.032-.039.048-.058a1.318,1.318,0,0,0-2.043,1.1,1.3,1.3,0,0,0,.336.871Z" transform="translate(-23.572 -7.608)" fill="#fff"/>
    </g>
  </g>
</svg>
