<svg xmlns="http://www.w3.org/2000/svg" width="20.107" height="14.137" viewBox="0 0 20.107 14.137">
  <g id="mslo7" transform="translate(0.001 0)">
    <path id="Tracé_42" data-name="Tracé 42" d="M18.339,0H13.272a10,10,0,0,0-9.5,6.847L2.509,10.635A2.95,2.95,0,0,0,0,13.548a.589.589,0,0,0,.589.589H17.161a1.767,1.767,0,0,0,.651-3.41,1.77,1.77,0,0,1,1.7-1.3.589.589,0,0,0,.589-.589V1.767A1.769,1.769,0,0,0,18.339,0ZM17.161,12.959H1.279a1.77,1.77,0,0,1,1.664-1.178H17.161a.589.589,0,0,1,0,1.178Zm1.767-4.653a2.954,2.954,0,0,0-2.3,2.3H3.762L4.89,7.22a8.825,8.825,0,0,1,8.382-6.042h5.067a.59.59,0,0,1,.589.589Zm0,0"/>
    <path id="Tracé_43" data-name="Tracé 43" d="M233.325,60h-5.38A2.949,2.949,0,0,0,225,62.945a.589.589,0,0,0,.589.589h7.736a.589.589,0,0,0,.589-.589V60.589A.589.589,0,0,0,233.325,60Zm-.589,2.356h-6.457a1.77,1.77,0,0,1,1.666-1.178h4.791Zm0,0" transform="translate(-216.165 -57.644)"/>
    <path id="Tracé_44" data-name="Tracé 44" d="M150.589,180a.589.589,0,0,0-.589.589v1.178a.589.589,0,0,0,1.178,0v-1.178A.589.589,0,0,0,150.589,180Zm0,0" transform="translate(-144.11 -172.932)"/>
    <path id="Tracé_45" data-name="Tracé 45" d="M210.589,180a.589.589,0,0,0-.589.589v1.178a.589.589,0,1,0,1.178,0v-1.178A.589.589,0,0,0,210.589,180Zm0,0" transform="translate(-201.754 -172.932)"/>
    <path id="Tracé_46" data-name="Tracé 46" d="M270.589,180a.589.589,0,0,0-.589.589v1.178a.589.589,0,1,0,1.178,0v-1.178A.589.589,0,0,0,270.589,180Zm0,0" transform="translate(-259.397 -172.932)"/>
  </g>
</svg>
