<svg xmlns="http://www.w3.org/2000/svg" width="20.313" height="11.768" viewBox="0 0 20.313 11.768">
  <g id="barbel" transform="translate(0 -107.685)">
    <g id="Groupe_19" data-name="Groupe 19" transform="translate(0 107.685)">
      <g id="Groupe_18" data-name="Groupe 18" transform="translate(0 0)">
        <path id="Tracé_47" data-name="Tracé 47" d="M17.227,107.685h-1.95c-1.39,0-2.568,1.671-2.957,4.175H7.993a9.353,9.353,0,0,0-.285-1.269.3.3,0,1,0-.57.172,9.83,9.83,0,0,1,.39,2.806c0,2.867-1.141,5.289-2.491,5.289H4.46c1.023-.948,1.712-2.937,1.712-5.289s-.689-4.341-1.712-5.289h.576a1.987,1.987,0,0,1,1.554,1.191.3.3,0,1,0,.514-.3,2.535,2.535,0,0,0-2.067-1.485H3.086C1.356,107.685,0,110.27,0,113.569s1.356,5.884,3.086,5.884h1.95c1.417,0,2.583-1.734,2.959-4.175H9.042a.3.3,0,1,0,0-.6H8.069c.035-.36.053-.732.053-1.114s-.019-.749-.055-1.114h6.68c.14,0,.407.434.407,1.114s-.267,1.114-.407,1.114H10.4a.3.3,0,1,0,0,.6H12.32a8.724,8.724,0,0,0,.5,1.877.3.3,0,0,0,.553-.22,8.047,8.047,0,0,1-.447-1.657h.506c.283,1.528.917,2.47,1.672,2.47,1.184,0,1.823-2.153,1.823-4.179s-.639-4.179-1.823-4.179c-.755,0-1.389.942-1.672,2.47h-.506a6.87,6.87,0,0,1,.907-2.563c.546-.84,1.088-1.017,1.446-1.017h0c1.35,0,2.49,2.423,2.49,5.289s-1.141,5.289-2.491,5.289a1.75,1.75,0,0,1-1.295-.8.3.3,0,1,0-.474.359,2.262,2.262,0,0,0,1.769,1.036h1.95c1.731,0,3.086-2.585,3.086-5.884S18.957,107.685,17.227,107.685ZM3.086,118.858c-1.35,0-2.491-2.422-2.491-5.289s1.141-5.289,2.491-5.289,2.491,2.422,2.491,5.289S4.436,118.858,3.086,118.858ZM15.1,109.985c.512,0,1.227,1.363,1.227,3.584s-.715,3.584-1.227,3.584c-.354,0-.819-.643-1.066-1.874h.714c.571,0,1-.735,1-1.709s-.431-1.709-1-1.709h-.714C14.281,110.628,14.746,109.985,15.1,109.985Zm2.126,8.873h-.576c1.023-.948,1.712-2.937,1.712-5.289s-.689-4.341-1.712-5.289h.576c1.35,0,2.491,2.422,2.491,5.289S18.577,118.858,17.227,118.858Z" transform="translate(0 -107.685)"/>
      </g>
    </g>
    <g id="Groupe_21" data-name="Groupe 21" transform="translate(1.088 109.39)">
      <g id="Groupe_20" data-name="Groupe 20" transform="translate(0 0)">
        <path id="Tracé_48" data-name="Tracé 48" d="M29.24,150.665c-1.184,0-1.822,2.153-1.822,4.179s.639,4.179,1.823,4.179,1.822-2.153,1.822-4.179S30.424,150.665,29.24,150.665Zm0,7.763c-.512,0-1.227-1.363-1.227-3.584s.715-3.584,1.227-3.584,1.227,1.363,1.227,3.584S29.753,158.428,29.24,158.428Z" transform="translate(-27.418 -150.665)"/>
      </g>
    </g>
  </g>
</svg>
