<svg xmlns="http://www.w3.org/2000/svg" width="19" height="21.923" viewBox="0 0 19 21.923">
  <g id="watch" transform="translate(-6 -2)">
    <path id="Tracé_29" data-name="Tracé 29" d="M18.685,6.408,18.006,2H10.072L9.392,6.408a8.027,8.027,0,0,0,0,13.107l.679,4.408h7.934l.679-4.408A8.044,8.044,0,0,0,22,14.058h.808v.731H25V11.135H22.808v.731H22A8.044,8.044,0,0,0,18.685,6.408ZM16.6,2.731h.783l.487,3.164a8.022,8.022,0,0,0-1.27-.552ZM14.039,4.923a8.032,8.032,0,0,0-1.827.212V4.192h3.654v.943A8.032,8.032,0,0,0,14.039,4.923ZM12.212,2.731h3.654v.731H12.212Zm-1.514,0h.783V5.343a8.023,8.023,0,0,0-1.27.552Zm.783,20.462H10.7l-.487-3.164a8.023,8.023,0,0,0,1.27.552ZM14.039,21a8.032,8.032,0,0,0,1.827-.212v.943H12.212v-.943A8.032,8.032,0,0,0,14.039,21Zm1.827,2.192H12.212v-.731h3.654Zm1.514,0H16.6V20.581a8.022,8.022,0,0,0,1.27-.552Zm6.89-11.327v2.192h-.731V11.865Zm-1.462.731v.731h-.74c.005-.121.009-.243.009-.365s0-.244-.009-.365Zm-8.769,7.673a7.308,7.308,0,1,1,7.308-7.308A7.308,7.308,0,0,1,14.039,20.269Z"/>
    <path id="Tracé_30" data-name="Tracé 30" d="M16.577,14a6.577,6.577,0,1,0,6.577,6.577A6.577,6.577,0,0,0,16.577,14Zm0,12.423a5.846,5.846,0,1,1,5.846-5.846,5.846,5.846,0,0,1-5.846,5.846Z" transform="translate(-2.538 -7.615)"/>
    <path id="Tracé_31" data-name="Tracé 31" d="M27,18h.731v1.462H27Z" transform="translate(-13.327 -10.154)"/>
    <path id="Tracé_32" data-name="Tracé 32" d="M14,31h1.462v.731H14Z" transform="translate(-5.077 -18.404)"/>
    <path id="Tracé_33" data-name="Tracé 33" d="M38,31h1.462v.731H38Z" transform="translate(-20.307 -18.404)"/>
    <path id="Tracé_34" data-name="Tracé 34" d="M0,0H.731V1.033H0Z" transform="translate(10.125 9.566) rotate(-45)"/>
    <path id="Tracé_35" data-name="Tracé 35" d="M0,0H1.033V.731H0Z" transform="translate(16.701 9.78) rotate(-45)"/>
    <path id="Tracé_36" data-name="Tracé 36" d="M0,0H1.033V.731H0Z" transform="translate(10.124 16.356) rotate(-45)"/>
    <path id="Tracé_37" data-name="Tracé 37" d="M0,0H.731V1.033H0Z" transform="translate(16.701 16.143) rotate(-45)"/>
    <path id="Tracé_38" data-name="Tracé 38" d="M23,37.827A1.827,1.827,0,1,0,24.827,36,1.827,1.827,0,0,0,23,37.827ZM24.462,36.8v1.029h.731V36.8a1.1,1.1,0,1,1-.731,0Z" transform="translate(-10.788 -21.577)"/>
    <path id="Tracé_39" data-name="Tracé 39" d="M23.109,25.647a1.442,1.442,0,0,0-.738.207L20.81,24.293l-.517.517,1.562,1.562a1.442,1.442,0,0,0-.207.738,1.462,1.462,0,1,0,2.9-.261l3.468-1.6-.306-.664-3.473,1.6a1.453,1.453,0,0,0-1.124-.539Zm0,2.192a.731.731,0,1,1,.731-.731A.731.731,0,0,1,23.109,27.84Z" transform="translate(-9.07 -14.147)"/>
    <path id="Tracé_40" data-name="Tracé 40" d="M25,24h2.192v.731H25Z" transform="translate(-12.057 -13.961)"/>
  </g>
</svg>
